<?xml version="1.0" encoding="utf-8"?>
<!-- Generator: Adobe Illustrator 24.3.0, SVG Export Plug-In . SVG Version: 6.00 Build 0)  -->
<svg version="1.1" id="Livello_1" xmlns="http://www.w3.org/2000/svg" xmlns:xlink="http://www.w3.org/1999/xlink" x="0px" y="0px"
	 viewBox="0 0 427.7 340" style="enable-background:new 0 0 427.7 340;" xml:space="preserve">
<style type="text/css">
	.st0{fill:#E81F2A;}
	.st1{fill:#201D1E;}
</style>
<g>
	<rect x="56.5" y="227" class="st0" width="313.6" height="13.9"/>
	<g>
		<path class="st1" d="M237.4,119.2l7.7-4.6l-16.7-26c-4.6,1.6-9,2.2-13.5-1.1c-3.7-2.9-4.8-6.4-4.7-11.1c0.2-4.1,2.3-8,6-10.3
			c4-2.2,9.8-1.3,12.7,0.5l16.7-25.4l-8.2-5.2c13-6.1,29.5-4.1,40.9,5.2l-16.7,25.5c-3.3-2.3-8.9-2.5-12.5-0.6
			c-3.6,2-5.7,6.2-6.3,10.1c-0.4,4.4,1.2,8,4.5,11.2c5,3.9,10.1,2.7,13.8,1.3l16.6,26C264.6,123.7,250.5,125.2,237.4,119.2"/>
		<path class="st1" d="M174.2,119.5c-10.7-4.8-17.6-13.3-21.1-20.5c-6.1-12-6.6-27.6-1.4-39.6c5.2-12.4,14.4-21.2,27-25.3
			c14.4-4,26.8-0.2,36.1,7.1l-16.7,25.5c-3.2-2.3-9.1-2.6-12.6-0.7c-3.6,2.2-5.3,5.3-6,8.9c-0.6,4.1,0.3,7.7,2.7,10.8
			c4.7,5,10,4.8,15.4,2.8l16.6,26C199.8,124.9,185.7,124.2,174.2,119.5"/>
	</g>
</g>
<g>
	<g>
		<path class="st1" d="M76.5,185.9L71,173.7v25.5H56.7v-48.5h16.6l9.5,21.3l9.5-21.3h16.3v48.5H94.1v-25.6l-5.5,12.3H76.5z"/>
		<path class="st1" d="M145.4,189.9h-14.6l-2.5,9.3h-15.8l16.4-48.5h19.2l16.4,48.5h-16.4L145.4,189.9z M134.1,178.1h8l-4.1-14.5
			L134.1,178.1z"/>
		<path class="st1" d="M209.9,168.3c0,3.3-0.7,6.1-2,8.2c-1.4,2.2-3.3,3.9-5.7,5.1l9.8,17.6h-16.6l-7-15h-4.8v15h-15.1v-48.5h21
			c3.7,0,6.9,0.3,9.5,0.9c2.6,0.6,4.7,1.5,6.3,2.8s2.8,2.9,3.5,5s1.1,4.6,1.1,7.5V168.3z M194.7,167.1c0-1.7-0.4-2.9-1.3-3.5
			c-0.8-0.7-2.3-1-4.3-1h-5.5v10h5.5c2,0,3.5-0.3,4.3-1s1.3-1.8,1.3-3.5V167.1z"/>
		<path class="st1" d="M215.2,199.2v-10.5l20.9-25.7h-20.9l2.2-12.3h38.2v10.8l-20.7,25.4h22.2l-2.2,12.3H215.2z"/>
		<path class="st1" d="M284.1,149.2c4.2,0,7.8,0.4,10.8,1.2s5.4,2,7.3,3.7s3.3,3.9,4.2,6.6c0.9,2.7,1.3,6.1,1.3,10v8
			c0,4-0.4,7.3-1.3,10.1s-2.3,5-4.2,6.7c-1.9,1.7-4.3,2.9-7.3,3.7c-3,0.7-6.6,1.1-10.8,1.1c-4.2,0-7.8-0.4-10.8-1.1
			c-3-0.7-5.4-2-7.3-3.7s-3.3-3.9-4.2-6.7c-0.9-2.8-1.3-6.1-1.3-10.1v-8c0-4,0.4-7.3,1.3-10s2.3-4.9,4.2-6.6
			c1.9-1.7,4.3-2.9,7.3-3.7C276.2,149.6,279.8,149.2,284.1,149.2z M284.1,187.3c1.5,0,2.7-0.1,3.6-0.4c0.9-0.2,1.7-0.7,2.2-1.3
			s0.9-1.5,1.1-2.6s0.3-2.5,0.3-4.2v-8c0-1.7-0.1-3.1-0.3-4.2c-0.2-1.1-0.6-2-1.1-2.6s-1.3-1.1-2.2-1.3c-0.9-0.2-2.1-0.4-3.6-0.4
			s-2.7,0.1-3.6,0.4c-0.9,0.3-1.7,0.7-2.2,1.3s-0.9,1.5-1.1,2.6s-0.3,2.5-0.3,4.2v8c0,1.7,0.1,3.1,0.3,4.2c0.2,1.1,0.6,2,1.1,2.6
			s1.3,1.1,2.2,1.3C281.3,187.2,282.6,187.3,284.1,187.3z"/>
		<path class="st1" d="M328.8,186.3h21.5l-2.4,12.9h-34.3v-48.5h15.1L328.8,186.3L328.8,186.3z"/>
		<path class="st1" d="M370.2,199.2h-15.8v-48.5h15.8V199.2z"/>
	</g>
</g>
<g>
	<g>
		<path class="st1" d="M51.8,273.9l-0.5,2.2H41.1v27.4h-2.5v-27.4H28.1l0.5-2.2H51.8z"/>
		<path class="st1" d="M54.2,293.5c0,1.6,0.1,2.9,0.3,3.9s0.5,1.8,1,2.5c0.5,0.6,1.2,1,2.1,1.3c0.9,0.2,2,0.4,3.4,0.4
			c1.2,0,2.3,0,3.5,0c1.1,0,2.3,0,3.6-0.1l-0.5,2.1c-0.9,0-2,0-3.2,0.1c-1.2,0-2.3,0-3.4,0c-1.8,0-3.3-0.2-4.5-0.6s-2.1-1-2.8-1.9
			c-0.7-0.8-1.2-1.8-1.4-3.1s-0.4-2.6-0.4-4.2v-2.6c0-1.7,0.2-3.2,0.5-4.5c0.3-1.2,0.9-2.2,1.6-3c0.7-0.8,1.7-1.3,2.8-1.7
			c1.1-0.4,2.5-0.5,4-0.5c3.1,0,5.3,0.7,6.7,2c1.4,1.3,2.1,3.5,2.1,6.4v1c0,0.6,0,1-0.1,1.4c-0.1,0.3-0.2,0.6-0.4,0.8
			c-0.2,0.2-0.4,0.3-0.7,0.4c-0.3,0.1-0.6,0.1-1.1,0.1H54.2V293.5z M60.7,283.5c-1.2,0-2.2,0.1-3,0.3c-0.8,0.2-1.5,0.6-2,1.2
			s-0.9,1.4-1.1,2.4c-0.2,1-0.4,2.3-0.4,4h13.1V290c0-1.2-0.1-2.3-0.4-3.1c-0.2-0.8-0.6-1.5-1.2-2c-0.5-0.5-1.2-0.9-2-1.1
			C62.8,283.6,61.8,283.5,60.7,283.5z"/>
		<path class="st1" d="M76.9,282.1l5.9,8.3l5.9-8.3h2.7l-7.3,10l8.3,11.4h-2.7l-7-9.7l-7,9.7H73l8.4-11.4l-7.3-10H76.9z"/>
		<path class="st1" d="M97.2,276.7l2.4-0.5v5.9h8.8l-0.5,2.1h-8.3v12c0,1,0.1,1.9,0.2,2.5c0.1,0.7,0.4,1.2,0.8,1.6s0.9,0.7,1.5,0.8
			c0.7,0.2,1.5,0.2,2.6,0.2h3.2l-0.5,2.1h-2.7c-1.4,0-2.6-0.1-3.6-0.3c-1-0.2-1.7-0.6-2.3-1.1c-0.6-0.5-1-1.3-1.2-2.2
			c-0.2-0.9-0.4-2.1-0.4-3.6V276.7z"/>
		<path class="st1" d="M116.8,276.1c0,0.7-0.2,1.1-0.5,1.4s-0.7,0.4-1.3,0.4c-0.6,0-1-0.1-1.3-0.4s-0.5-0.7-0.5-1.4
			c0-0.6,0.1-1.1,0.4-1.4s0.7-0.5,1.4-0.5c0.6,0,1.1,0.2,1.4,0.5C116.7,275,116.8,275.5,116.8,276.1z M113.8,282.1h2.4v21.4h-2.4
			V282.1z"/>
		<path class="st1" d="M123.4,272.6h2.4v30.9h-2.4V272.6z"/>
		<path class="st1" d="M134.5,293.5c0,1.6,0.1,2.9,0.3,3.9s0.5,1.8,1,2.5c0.5,0.6,1.2,1,2.1,1.3c0.9,0.2,2,0.4,3.4,0.4
			c1.2,0,2.3,0,3.5,0c1.1,0,2.3,0,3.6-0.1l-0.5,2.1c-0.9,0-2,0-3.2,0.1c-1.2,0-2.3,0-3.4,0c-1.8,0-3.3-0.2-4.5-0.6s-2.1-1-2.8-1.9
			c-0.7-0.8-1.2-1.8-1.4-3.1s-0.4-2.6-0.4-4.2v-2.6c0-1.7,0.2-3.2,0.5-4.5c0.3-1.2,0.9-2.2,1.6-3c0.7-0.8,1.7-1.3,2.8-1.7
			c1.1-0.4,2.5-0.5,4-0.5c3.1,0,5.3,0.7,6.7,2s2.1,3.5,2.1,6.4v1c0,0.6,0,1-0.1,1.4c-0.1,0.3-0.2,0.6-0.4,0.8
			c-0.2,0.2-0.4,0.3-0.7,0.4s-0.6,0.1-1.1,0.1h-13.1L134.5,293.5L134.5,293.5z M141.1,283.5c-1.2,0-2.2,0.1-3,0.3
			c-0.8,0.2-1.5,0.6-2,1.2s-0.9,1.4-1.1,2.4c-0.2,1-0.4,2.3-0.4,4h13.1V290c0-1.2-0.1-2.3-0.4-3.1c-0.2-0.8-0.6-1.5-1.2-2
			c-0.5-0.5-1.2-0.9-2-1.1C143.2,283.6,142.2,283.5,141.1,283.5z"/>
		<path class="st1" d="M187.2,273.9l-0.5,2.2h-16.1v11h15.5l-0.5,2.2h-15v11.9h16.6l-0.5,2.2h-18.5v-29.6L187.2,273.9L187.2,273.9z"
			/>
		<path class="st1" d="M193.6,303.5v-14.3c0-1.2,0.1-2.3,0.4-3.2c0.2-1,0.7-1.8,1.4-2.5s1.6-1.2,2.7-1.5c1.2-0.4,2.6-0.5,4.4-0.5
			c1.8,0,3.3,0.2,4.4,0.5c1.2,0.3,2.1,0.9,2.7,1.5c0.7,0.7,1.1,1.5,1.4,2.5c0.2,1,0.4,2.1,0.4,3.3v14.3H209v-14c0-1-0.1-1.8-0.2-2.6
			s-0.4-1.4-0.9-1.9c-0.4-0.5-1.1-0.9-2-1.1s-2-0.4-3.5-0.4s-2.6,0.1-3.5,0.4s-1.5,0.6-2,1.1c-0.4,0.5-0.7,1.1-0.9,1.9
			c-0.1,0.7-0.2,1.6-0.2,2.5v14L193.6,303.5L193.6,303.5z"/>
		<path class="st1" d="M234,299.9c-0.6,1-1.5,1.7-2.7,2.2c-1.2,0.4-2.7,0.7-4.5,0.7c-3.1,0-5.4-0.7-6.9-2.1s-2.2-3.8-2.2-7.2v-2.7
			c0-1.7,0.2-3.2,0.5-4.3c0.4-1.2,0.9-2.1,1.7-2.9c0.8-0.7,1.7-1.3,2.9-1.6c1.2-0.3,2.6-0.5,4.2-0.5c1.7,0,3.2,0.2,4.4,0.5
			c1.2,0.4,2.2,0.9,2.9,1.7c0.7,0.7,1.3,1.7,1.6,2.9c0.3,1.2,0.5,2.5,0.5,4.1v11.4c0,1.6-0.2,3-0.5,4.1s-0.9,2-1.7,2.7
			s-1.8,1.2-3,1.5s-2.7,0.5-4.5,0.5c-1.2,0-2.3,0-3.3,0s-2.2,0-3.5-0.1l0.5-2.1c1.2,0.1,2.3,0.1,3.2,0.1s1.9,0,3,0
			c1.4,0,2.5-0.1,3.4-0.3c0.9-0.2,1.7-0.6,2.2-1.1c0.6-0.5,1-1.2,1.2-2.1s0.4-1.9,0.4-3.2v-2.2H234z M227,300.6
			c0.9,0,1.8-0.1,2.7-0.2c0.8-0.2,1.6-0.5,2.2-0.9c0.7-0.4,1.2-1.1,1.5-1.9c0.4-0.8,0.6-1.9,0.6-3.2v-3.8c0-1.4-0.1-2.6-0.4-3.5
			s-0.7-1.6-1.2-2.2c-0.6-0.5-1.3-0.9-2.2-1.1s-2-0.3-3.3-0.3s-2.4,0.1-3.2,0.3c-0.9,0.2-1.6,0.6-2.1,1.1s-0.9,1.3-1.1,2.2
			c-0.2,0.9-0.3,2.1-0.3,3.6v2.5c0,1.5,0.1,2.7,0.4,3.7c0.3,1,0.7,1.7,1.2,2.2c0.6,0.5,1.3,0.9,2.1,1.1
			C224.7,300.5,225.8,300.6,227,300.6z"/>
		<path class="st1" d="M246.5,276.1c0,0.7-0.2,1.1-0.5,1.4s-0.7,0.4-1.3,0.4s-1-0.1-1.3-0.4s-0.5-0.7-0.5-1.4c0-0.6,0.1-1.1,0.4-1.4
			c0.3-0.3,0.7-0.5,1.4-0.5s1.1,0.2,1.4,0.5C246.4,275,246.5,275.5,246.5,276.1z M243.5,282.1h2.4v21.4h-2.4V282.1z"/>
		<path class="st1" d="M253.1,303.5v-14.3c0-1.2,0.1-2.3,0.4-3.2c0.2-1,0.7-1.8,1.4-2.5s1.6-1.2,2.7-1.5c1.1-0.4,2.6-0.5,4.4-0.5
			s3.3,0.2,4.4,0.5s2.1,0.9,2.7,1.5c0.7,0.7,1.1,1.5,1.4,2.5c0.2,1,0.4,2.1,0.4,3.3v14.3h-2.4v-14c0-1-0.1-1.8-0.2-2.6
			c-0.1-0.7-0.4-1.4-0.9-1.9c-0.4-0.5-1.1-0.9-2-1.1s-2-0.4-3.5-0.4s-2.6,0.1-3.5,0.4s-1.5,0.6-2,1.1c-0.4,0.5-0.7,1.1-0.9,1.9
			c-0.1,0.7-0.2,1.6-0.2,2.5v14L253.1,303.5L253.1,303.5z"/>
		<path class="st1" d="M279.6,293.5c0,1.6,0.1,2.9,0.3,3.9c0.2,1,0.5,1.8,1,2.5c0.5,0.6,1.2,1,2.1,1.3c0.9,0.2,2,0.4,3.4,0.4
			c1.2,0,2.3,0,3.5,0c1.1,0,2.3,0,3.6-0.1l-0.5,2.1c-0.9,0-2,0-3.2,0.1c-1.2,0-2.3,0-3.4,0c-1.8,0-3.3-0.2-4.5-0.6s-2.1-1-2.8-1.9
			c-0.7-0.8-1.2-1.8-1.4-3.1c-0.3-1.2-0.4-2.6-0.4-4.2v-2.6c0-1.7,0.2-3.2,0.5-4.5c0.3-1.2,0.9-2.2,1.6-3s1.7-1.3,2.8-1.7
			c1.1-0.4,2.5-0.5,4-0.5c3.1,0,5.3,0.7,6.7,2c1.4,1.3,2.1,3.5,2.1,6.4v1c0,0.6,0,1-0.1,1.4c-0.1,0.3-0.2,0.6-0.4,0.8
			c-0.2,0.2-0.4,0.3-0.7,0.4c-0.3,0.1-0.6,0.1-1.1,0.1h-13.1V293.5z M286.1,283.5c-1.2,0-2.2,0.1-3,0.3c-0.8,0.2-1.5,0.6-2,1.2
			s-0.9,1.4-1.1,2.4s-0.4,2.3-0.4,4h13.1V290c0-1.2-0.1-2.3-0.4-3.1c-0.2-0.8-0.6-1.5-1.2-2c-0.5-0.5-1.2-0.9-2-1.1
			C288.3,283.6,287.3,283.5,286.1,283.5z"/>
		<path class="st1" d="M302.8,293.5c0,1.6,0.1,2.9,0.3,3.9c0.2,1,0.5,1.8,1,2.5c0.5,0.6,1.2,1,2.1,1.3c0.9,0.2,2,0.4,3.4,0.4
			c1.2,0,2.3,0,3.5,0c1.1,0,2.3,0,3.6-0.1l-0.5,2.1c-0.9,0-2,0-3.2,0.1c-1.2,0-2.3,0-3.4,0c-1.8,0-3.3-0.2-4.5-0.6s-2.1-1-2.8-1.9
			c-0.7-0.8-1.2-1.8-1.4-3.1c-0.3-1.2-0.4-2.6-0.4-4.2v-2.6c0-1.7,0.2-3.2,0.5-4.5c0.3-1.2,0.9-2.2,1.6-3s1.7-1.3,2.8-1.7
			c1.1-0.4,2.5-0.5,4-0.5c3.1,0,5.3,0.7,6.7,2c1.4,1.3,2.1,3.5,2.1,6.4v1c0,0.6,0,1-0.1,1.4c-0.1,0.3-0.2,0.6-0.4,0.8
			c-0.2,0.2-0.4,0.3-0.7,0.4c-0.3,0.1-0.6,0.1-1.1,0.1h-13.1V293.5z M309.3,283.5c-1.2,0-2.2,0.1-3,0.3c-0.8,0.2-1.5,0.6-2,1.2
			s-0.9,1.4-1.1,2.4s-0.4,2.3-0.4,4h13.1V290c0-1.2-0.1-2.3-0.4-3.1c-0.2-0.8-0.6-1.5-1.2-2c-0.5-0.5-1.2-0.9-2-1.1
			C311.5,283.6,310.5,283.5,309.3,283.5z"/>
		<path class="st1" d="M324.5,303.5v-14.1c0-1.4,0.2-2.6,0.5-3.6c0.3-0.9,0.8-1.7,1.4-2.3c0.6-0.6,1.4-1,2.4-1.2
			c0.9-0.2,2-0.3,3.3-0.3c0.9,0,1.8,0,2.6,0c0.8,0,1.5,0,2,0l-0.5,2.2c-0.4,0-0.9,0-1.7-0.1c-0.8,0-1.5,0-2.3,0
			c-1.1,0-1.9,0.1-2.6,0.3c-0.7,0.2-1.2,0.5-1.6,0.9s-0.7,1-0.8,1.7c-0.2,0.7-0.2,1.6-0.2,2.7v13.8H324.5z"/>
		<path class="st1" d="M344.9,276.1c0,0.7-0.2,1.1-0.5,1.4s-0.7,0.4-1.3,0.4c-0.6,0-1-0.1-1.3-0.4s-0.5-0.7-0.5-1.4
			c0-0.6,0.1-1.1,0.4-1.4s0.7-0.5,1.4-0.5c0.6,0,1.1,0.2,1.4,0.5S344.9,275.5,344.9,276.1z M341.9,282.1h2.4v21.4h-2.4V282.1z"/>
		<path class="st1" d="M351.5,303.5v-14.3c0-1.2,0.1-2.3,0.4-3.2c0.2-1,0.7-1.8,1.4-2.5c0.7-0.7,1.6-1.2,2.7-1.5
			c1.1-0.4,2.6-0.5,4.4-0.5s3.3,0.2,4.4,0.5c1.2,0.3,2.1,0.9,2.7,1.5c0.7,0.7,1.1,1.5,1.4,2.5c0.2,1,0.4,2.1,0.4,3.3v14.3h-2.4v-14
			c0-1-0.1-1.8-0.2-2.6c-0.1-0.7-0.4-1.4-0.9-1.9c-0.4-0.5-1.1-0.9-2-1.1s-2-0.4-3.5-0.4s-2.6,0.1-3.5,0.4s-1.5,0.6-2,1.1
			c-0.4,0.5-0.7,1.1-0.9,1.9c-0.1,0.7-0.2,1.6-0.2,2.5v14L351.5,303.5L351.5,303.5z"/>
		<path class="st1" d="M391.8,299.9c-0.6,1-1.5,1.7-2.7,2.2c-1.2,0.4-2.7,0.7-4.5,0.7c-3.1,0-5.4-0.7-6.9-2.1s-2.2-3.8-2.2-7.2v-2.7
			c0-1.7,0.2-3.2,0.5-4.3c0.4-1.2,0.9-2.1,1.7-2.9c0.8-0.7,1.7-1.3,2.9-1.6c1.2-0.3,2.6-0.5,4.2-0.5c1.7,0,3.2,0.2,4.4,0.5
			c1.2,0.4,2.2,0.9,2.9,1.7c0.7,0.7,1.3,1.7,1.6,2.9c0.3,1.2,0.5,2.5,0.5,4.1v11.4c0,1.6-0.2,3-0.5,4.1s-0.9,2-1.7,2.7
			c-0.8,0.7-1.8,1.2-3,1.5s-2.7,0.5-4.5,0.5c-1.2,0-2.3,0-3.3,0s-2.2,0-3.5-0.1l0.5-2.1c1.2,0.1,2.3,0.1,3.2,0.1c0.9,0,1.9,0,3,0
			c1.4,0,2.5-0.1,3.4-0.3c0.9-0.2,1.7-0.6,2.2-1.1c0.6-0.5,1-1.2,1.2-2.1s0.4-1.9,0.4-3.2v-2.2H391.8z M384.8,300.6
			c0.9,0,1.8-0.1,2.7-0.2c0.8-0.2,1.6-0.5,2.2-0.9c0.7-0.4,1.2-1.1,1.5-1.9c0.4-0.8,0.6-1.9,0.6-3.2v-3.8c0-1.4-0.1-2.6-0.4-3.5
			s-0.7-1.6-1.2-2.2c-0.6-0.5-1.3-0.9-2.2-1.1c-0.9-0.2-2-0.3-3.3-0.3s-2.4,0.1-3.2,0.3c-0.9,0.2-1.6,0.6-2.1,1.1s-0.9,1.3-1.1,2.2
			c-0.2,0.9-0.3,2.1-0.3,3.6v2.5c0,1.5,0.1,2.7,0.4,3.7s0.7,1.7,1.2,2.2c0.6,0.5,1.3,0.9,2.1,1.1
			C382.6,300.5,383.6,300.6,384.8,300.6z"/>
	</g>
</g>
</svg>
